<svg height="47" width="119" fill="none" xmlns="http://www.w3.org/2000/svg"><path d="M37.436 5H4.16C1.872 5 0 6.884 0 9.187v25.119s0 4.187 4.16 4.187h4.16v7.412a1 1 0 001.602.798l10.876-8.21h16.638c2.288 0 4.16-1.884 4.16-4.187V9.186c0-2.302-1.872-4.186-4.16-4.186zm0 28.306a1 1 0 01-1 1H20.093a1 1 0 00-.602.202l-8.052 6.078v-5.28a1 1 0 00-1-1h-5.28a1 1 0 01-1-1v-23.12a1 1 0 011-1h31.277a1 1 0 011 1v23.12z" fill="url(#paint0_linear)"/><path d="M20.228 21.1a3.12 3.12 0 00-.94-2.284 3.08 3.08 0 00-2.268-.946 3.08 3.08 0 00-2.268.946 3.12 3.12 0 00-.94 2.283c0 .891.313 1.652.94 2.283a3.08 3.08 0 002.268.946 3.08 3.08 0 002.268-.946c.627-.63.94-1.392.94-2.283zm9.624 6.457c0-.438-.159-.816-.476-1.135a1.537 1.537 0 00-1.128-.48c-.434 0-.81.16-1.128.48-.317.32-.476.697-.476 1.135 0 .445.157.826.47 1.141a1.54 1.54 0 001.134.473c.443 0 .82-.157 1.134-.473a1.56 1.56 0 00.47-1.141zm0-12.916c0-.437-.159-.815-.476-1.135a1.537 1.537 0 00-1.128-.479c-.434 0-.81.16-1.128.48-.317.319-.476.697-.476 1.134 0 .446.157.827.47 1.142a1.54 1.54 0 001.134.473c.443 0 .82-.158 1.134-.473a1.56 1.56 0 00.47-1.142zm-4.812 5.31v2.334c0 .084-.03.166-.088.246-.058.08-.125.124-.2.132l-1.942.303a6.23 6.23 0 01-.401.958c.284.404.66.887 1.127 1.45a.483.483 0 01.088.253c0 .1-.03.18-.088.24-.192.252-.536.628-1.034 1.128-.497.5-.825.75-.983.75a.45.45 0 01-.263-.087l-1.442-1.136c-.309.16-.63.29-.964.392-.092.908-.188 1.56-.289 1.954-.058.202-.183.303-.375.303h-2.331a.38.38 0 01-.251-.094.326.326 0 01-.125-.221l-.288-1.93a5.473 5.473 0 01-.94-.39l-1.48 1.122c-.058.058-.141.088-.25.088a.414.414 0 01-.263-.101c-1.203-1.118-1.804-1.79-1.804-2.018 0-.076.029-.155.087-.24.084-.117.255-.34.514-.668.26-.328.455-.585.59-.77a6.48 6.48 0 01-.44-1.034l-1.904-.302a.308.308 0 01-.213-.12.378.378 0 01-.088-.246v-2.334c0-.084.03-.166.088-.245.058-.08.125-.124.2-.133l1.943-.303a6.23 6.23 0 01.4-.958c-.284-.404-.66-.887-1.127-1.45a.483.483 0 01-.088-.253c0-.1.03-.185.088-.252.184-.252.526-.626 1.027-1.123.502-.496.832-.744.99-.744.092 0 .18.03.263.088l1.442 1.136c.284-.152.605-.286.964-.404.092-.908.188-1.556.289-1.942.058-.202.184-.303.376-.303h2.33a.38.38 0 01.251.095.326.326 0 01.125.22l.289 1.93c.284.084.597.214.94.391l1.478-1.123a.365.365 0 01.25-.088c.093 0 .18.034.264.101 1.203 1.118 1.805 1.791 1.805 2.018a.47.47 0 01-.088.24c-.1.134-.276.361-.527.68-.25.32-.438.573-.564.758.193.403.335.748.427 1.034l1.904.29c.084.017.155.06.213.132a.377.377 0 01.088.246zm8.02 6.723v1.766c0 .134-.622.264-1.867.39-.1.228-.226.446-.376.657.426.95.64 1.53.64 1.74 0 .034-.018.063-.051.088-1.02.597-1.537.896-1.554.896-.067 0-.259-.198-.576-.593a13.512 13.512 0 01-.652-.858 4.117 4.117 0 01-.376.026c-.083 0-.209-.009-.376-.026-.117.177-.334.463-.651.858-.318.395-.51.593-.577.593-.017 0-.535-.299-1.554-.896-.033-.025-.05-.054-.05-.088 0-.21.213-.79.64-1.74a3.676 3.676 0 01-.377-.656c-1.245-.127-1.867-.257-1.867-.391v-1.766c0-.135.622-.265 1.867-.391a3.53 3.53 0 01.376-.656c-.426-.95-.639-1.53-.639-1.74 0-.034.017-.064.05-.089.034-.017.18-.1.439-.252.259-.151.505-.294.74-.429.233-.134.358-.202.375-.202.067 0 .26.196.577.587.317.39.534.675.651.851a4.09 4.09 0 01.376-.025c.084 0 .209.008.376.025.426-.597.81-1.068 1.153-1.413l.075-.025c.034 0 .552.295 1.554.883.033.025.05.055.05.089 0 .21-.213.79-.639 1.74.142.193.267.412.376.656 1.245.126 1.867.256 1.867.39zm0-12.915v1.765c0 .135-.622.265-1.867.391-.1.227-.226.446-.376.656.426.95.64 1.53.64 1.74 0 .034-.018.064-.051.089-1.02.597-1.537.896-1.554.896-.067 0-.259-.198-.576-.593a13.477 13.477 0 01-.652-.858 4.09 4.09 0 01-.376.025 4.09 4.09 0 01-.376-.025c-.117.177-.334.463-.651.858-.318.395-.51.593-.577.593-.017 0-.535-.299-1.554-.896-.033-.025-.05-.055-.05-.088 0-.21.213-.79.64-1.74a3.68 3.68 0 01-.377-.657c-1.245-.126-1.867-.256-1.867-.39v-1.766c0-.135.622-.265 1.867-.391a3.53 3.53 0 01.376-.656c-.426-.95-.639-1.53-.639-1.74 0-.034.017-.064.05-.09.034-.016.18-.1.439-.251.259-.152.505-.295.74-.43.233-.134.358-.201.375-.201.067 0 .26.195.577.586.317.391.534.675.651.852.167-.017.293-.025.376-.025.084 0 .209.008.376.025.426-.597.81-1.068 1.153-1.413l.075-.025c.034 0 .552.294 1.554.883.033.025.05.055.05.088 0 .21-.213.79-.639 1.74.142.194.267.413.376.657 1.245.126 1.867.256 1.867.39z" fill="url(#paint1_linear)"/><path d="M51.038 16.398l-2.617 2.414V25h-.606V8.648h.606v9.457l2.696-2.64L57.9 8.648h.876l-7.289 7.334L59.337 25h-.786l-7.513-8.602zM61.47 25h-.606V8.648h.606V25zm14.722 0h-.606L65.029 9.682V25h-.617V8.648h.617l10.557 15.285V8.648h.606V25zm2.504 0V8.648h4.526c1.265 0 2.41.3 3.436.899 1.026.599 1.83 1.441 2.415 2.527.584 1.078.883 2.287.898 3.627v2.123c0 1.362-.288 2.59-.865 3.683a6.317 6.317 0 01-2.392 2.56c-1.025.615-2.17.925-3.436.933h-4.582zm.606-15.745v15.139h3.92c1.145 0 2.186-.277 3.122-.831a5.887 5.887 0 002.212-2.336c.532-1.004.801-2.116.809-3.336v-2.1c0-1.22-.262-2.328-.786-3.324a5.754 5.754 0 00-2.18-2.336 5.95 5.95 0 00-3.088-.876h-4.009zm13.06 15.139h8.389V25h-9.006V8.648h.617v15.746zm11.162-6.155l5.728-9.59h.741l-6.165 10.14V25h-.607v-6.21L97.056 8.648h.808l5.66 9.591zM51.384 36c-.067-.131-.127-.345-.178-.641a2.401 2.401 0 01-1.802.768c-.69 0-1.253-.197-1.689-.59a1.889 1.889 0 01-.654-1.46c0-.732.271-1.293.813-1.682.546-.394 1.325-.59 2.336-.59h.946v-.451c0-.356-.1-.64-.299-.851-.199-.216-.501-.324-.907-.324-.352 0-.64.09-.864.267a.807.807 0 00-.336.666h-1.542a1.7 1.7 0 01.374-1.053c.25-.33.588-.589 1.016-.775.431-.186.912-.28 1.44-.28.805 0 1.446.204 1.924.61.478.402.723.97.736 1.701v3.098c0 .618.087 1.11.26 1.48V36h-1.574zm-1.694-1.11c.304 0 .59-.075.856-.223a1.48 1.48 0 00.61-.597v-1.295h-.832c-.571 0-1 .1-1.288.299-.288.199-.432.48-.432.844 0 .296.097.533.292.71.199.174.463.261.794.261zm6.055-5.758l.045.793c.507-.613 1.174-.92 2-.92 1.43 0 2.157.819 2.183 2.456V36H58.43v-4.45c0-.436-.095-.757-.285-.965-.187-.211-.494-.317-.92-.317-.623 0-1.086.281-1.391.844V36h-1.543v-6.868h1.454zm9.655 5.002a.698.698 0 00-.343-.629c-.224-.144-.599-.27-1.123-.38-.525-.11-.963-.25-1.314-.42-.77-.372-1.156-.911-1.156-1.618 0-.593.25-1.088.75-1.485.499-.398 1.133-.597 1.904-.597.82 0 1.483.203 1.987.61.507.405.761.932.761 1.58h-1.542a.941.941 0 00-.33-.736c-.22-.2-.512-.299-.876-.299-.339 0-.616.078-.832.235a.743.743 0 00-.317.628c0 .237.1.422.298.553.199.13.601.264 1.206.4.605.13 1.08.29 1.422.476.347.182.603.402.768.66.17.258.254.571.254.94 0 .617-.256 1.119-.768 1.504-.512.38-1.183.571-2.012.571-.563 0-1.065-.102-1.505-.305a2.477 2.477 0 01-1.028-.838 1.984 1.984 0 01-.368-1.149h1.498c.021.364.159.646.413.845.253.194.59.292 1.009.292.406 0 .715-.077.926-.229a.725.725 0 00.318-.61zm8.9-.26l1.091-4.742h1.504L75.023 36h-1.27l-1.472-4.716L70.833 36h-1.269l-1.879-6.868h1.504l1.111 4.69 1.41-4.69h1.161l1.428 4.741zm6.652 2.253c-.978 0-1.771-.307-2.38-.92-.606-.618-.908-1.44-.908-2.463v-.19c0-.686.13-1.298.393-1.835a3.036 3.036 0 011.117-1.263c.478-.3 1.012-.451 1.6-.451.935 0 1.657.298 2.165.895.512.597.768 1.44.768 2.533v.622h-4.488c.046.567.235 1.015.565 1.345.334.33.753.495 1.256.495.707 0 1.283-.285 1.727-.856l.832.793c-.275.41-.644.73-1.105.959a3.454 3.454 0 01-1.542.336zm-.184-5.884c-.424 0-.766.148-1.029.444-.258.296-.423.709-.495 1.238h2.94v-.114c-.035-.517-.172-.906-.413-1.168-.242-.267-.576-.4-1.003-.4zm7.737.298a3.824 3.824 0 00-.628-.05c-.707 0-1.183.27-1.428.812V36h-1.543v-6.868h1.473l.038.768c.372-.597.889-.895 1.549-.895.22 0 .402.03.546.089l-.007 1.447zm.832 3.834c.288 0 .51.083.666.248.157.16.235.364.235.609a.83.83 0 01-.235.603c-.156.157-.378.235-.666.235-.275 0-.493-.078-.654-.235a.805.805 0 01-.241-.603c0-.245.078-.449.235-.61.156-.164.376-.247.66-.247zm4.12-5.243l.044.717c.482-.563 1.143-.844 1.98-.844.919 0 1.547.351 1.886 1.054.499-.703 1.201-1.054 2.107-1.054.758 0 1.32.21 1.689.628.372.42.562 1.037.571 1.854V36h-1.543v-4.469c0-.436-.095-.755-.285-.958-.19-.203-.506-.305-.946-.305-.351 0-.639.095-.863.286a1.48 1.48 0 00-.464.736L97.64 36h-1.543v-4.52c-.021-.808-.434-1.212-1.238-1.212-.617 0-1.055.252-1.314.755V36h-1.542v-6.868h1.454zm12.885 6.995c-.977 0-1.771-.307-2.38-.92-.605-.618-.908-1.44-.908-2.463v-.19c0-.686.131-1.298.394-1.835a3.033 3.033 0 011.117-1.263c.478-.3 1.011-.451 1.6-.451.935 0 1.656.298 2.164.895.512.597.768 1.44.768 2.533v.622h-4.488c.047.567.235 1.015.565 1.345.335.33.754.495 1.257.495.707 0 1.282-.285 1.727-.856l.831.793c-.275.41-.643.73-1.104.959a3.455 3.455 0 01-1.543.336zm-.184-5.884c-.423 0-.766.148-1.028.444-.258.296-.423.709-.495 1.238h2.939v-.114c-.034-.517-.172-.906-.413-1.168-.241-.267-.575-.4-1.003-.4z" fill="#333"/><defs><linearGradient gradientUnits="userSpaceOnUse" id="paint0_linear" x1="0" x2="44.509" y1="25.953" y2="25.953"><stop stop-color="#4776E6"/><stop stop-color="#8E54E9" offset="1"/></linearGradient><linearGradient gradientUnits="userSpaceOnUse" id="paint1_linear" x1="9" x2="33.06" y1="21.105" y2="21.105"><stop stop-color="#4776E6"/><stop stop-color="#8E54E9" offset="1"/></linearGradient></defs></svg>